<?xml version="1.0" encoding="UTF-8" standalone="no"?>
<!-- Generator: Adobe Illustrator 18.0.0, SVG Export Plug-In . SVG Version: 6.00 Build 0)  -->

<svg
   xmlns:dc="http://purl.org/dc/elements/1.1/"
   xmlns:cc="http://creativecommons.org/ns#"
   xmlns:rdf="http://www.w3.org/1999/02/22-rdf-syntax-ns#"
   xmlns:svg="http://www.w3.org/2000/svg"
   xmlns="http://www.w3.org/2000/svg"
   xmlns:sodipodi="http://sodipodi.sourceforge.net/DTD/sodipodi-0.dtd"
   xmlns:inkscape="http://www.inkscape.org/namespaces/inkscape"
   version="1.1"
   id="Calque_1"
   x="0px"
   y="0px"
   viewBox="0 0 599.22321 141.5"
   enable-background="new 0 0 946 371"
   xml:space="preserve"
   sodipodi:docname="logo_black.svg"
   width="599.22321"
   height="141.5"
   inkscape:version="0.92.2 2405546, 2018-03-11"><metadata
   id="metadata41"><rdf:RDF><cc:Work
       rdf:about=""><dc:format>image/svg+xml</dc:format><dc:type
         rdf:resource="http://purl.org/dc/dcmitype/StillImage" /><dc:title></dc:title></cc:Work></rdf:RDF></metadata><defs
   id="defs39" /><sodipodi:namedview
   pagecolor="#ffffff"
   bordercolor="#666666"
   borderopacity="1"
   objecttolerance="10"
   gridtolerance="10"
   guidetolerance="10"
   inkscape:pageopacity="0"
   inkscape:pageshadow="2"
   inkscape:window-width="1918"
   inkscape:window-height="1058"
   id="namedview37"
   showgrid="false"
   fit-margin-top="0"
   fit-margin-left="0"
   fit-margin-right="0"
   fit-margin-bottom="0"
   inkscape:zoom="0.35623679"
   inkscape:cx="-191.92493"
   inkscape:cy="47.1"
   inkscape:window-x="0"
   inkscape:window-y="20"
   inkscape:window-maximized="0"
   inkscape:current-layer="Calque_1" />
<g
   id="texte_noir"
   transform="translate(-182.1,-91.1)">
	<path
   d="m 219.6,137.7 c -2.7,0 -4.4,1 -4.4,2.6 0,7.3 40.6,4.4 40.6,30.7 0,16.2 -13.9,26.6 -35.5,26.6 -14.4,0 -27.3,-3.7 -38.2,-11.2 l 9.7,-20 c 10.4,6.4 20.2,9.7 28.9,9.7 3,0 4.9,-0.9 4.9,-2.3 0,-6.9 -39.8,-3.9 -39.8,-30.3 0,-16.4 13.6,-27 34.5,-27 12.4,0 24.6,3.3 36.3,9.9 L 246,146.2 c -11.6,-5.7 -20.4,-8.5 -26.4,-8.5 z"
   id="path2"
   inkscape:connector-curvature="0" />
	<path
   d="m 301.9,177.3 c 6.4,0 11.3,-5 11.3,-13 v -46.1 h 26 v 46.1 c 0,21.2 -14.7,35 -37.4,35 -22.9,0 -38,-13.8 -38,-35 v -46.1 h 26 v 46.1 c 0,7.8 5.6,13 12.1,13 z"
   id="path4"
   inkscape:connector-curvature="0" />
	<path
   d="m 407.7,116.5 v 29 c -14.4,-2.1 -23.9,3 -23.9,13.3 v 37.3 h -32.2 v -78.2 h 32.2 v 11.4 c 5.4,-8.1 13.7,-12.8 23.9,-12.8 z"
   id="path6"
   inkscape:connector-curvature="0" />
	<path
   d="m 494,157.5 c 0,24.2 -12.1,39.8 -30.8,39.8 -7.4,0 -13.7,-3.3 -18.2,-9.2 v 35.8 h -28.3 v -106 H 445 v 7.9 c 4.4,-5.9 10.4,-9 17.5,-9 19.1,0 31.5,16 31.5,40.7 z m -28.5,-0.8 c 0,-9.2 -4,-15.2 -10.3,-15.2 -6.2,0 -10.2,6 -10.2,15.2 0,9.2 4,15.2 10.2,15.2 6.2,-0.1 10.3,-6.1 10.3,-15.2 z"
   id="path8"
   inkscape:connector-curvature="0" />
	<path
   d="m 559.8,116.5 v 29 c -14.4,-2.1 -23.9,3 -23.9,13.3 v 37.3 H 503.7 V 117.9 H 536 v 11.4 c 5.4,-8.1 13.7,-12.8 23.8,-12.8 z"
   id="path10"
   inkscape:connector-curvature="0" />
	<path
   stroke-miterlimit="10"
   d="m 574.5,217.4 c 0,-4.1 1.1,-7.1 3.4,-9.1 2.3,-2 5.9,-3 11,-3 5.1,0 8.8,1 11.1,3.1 2.3,2 3.5,5.1 3.5,9.1 0,8.1 -4.9,12.1 -14.6,12.1 -4.9,0 -8.5,-1 -10.9,-3 -2.4,-2 -3.5,-5.1 -3.5,-9.2 z m 0.7,-21.3 v -102 h 27.7 v 102.1 h -27.7 z"
   id="path12"
   inkscape:connector-curvature="0"
   style="fill:none;stroke:#000000;stroke-width:6;stroke-miterlimit:10" />
	<path
   d="m 653.1,137.7 c -2.7,0 -4.4,1 -4.4,2.6 0,7.3 40.6,4.4 40.6,30.7 0,16.2 -13.9,26.6 -35.5,26.6 -14.4,0 -27.3,-3.7 -38.2,-11.2 l 9.7,-20 c 10.4,6.4 20.2,9.7 28.9,9.7 3,0 4.9,-0.9 4.9,-2.3 0,-6.9 -39.8,-3.9 -39.8,-30.3 0,-16.4 13.6,-27 34.5,-27 12.4,0 24.6,3.3 36.3,9.9 l -10.6,19.9 c -11.5,-5.8 -20.4,-8.6 -26.4,-8.6 z"
   id="path14"
   inkscape:connector-curvature="0" />
	<path
   d="m 781.2,164.2 h -50.9 c 2.1,6.1 6.7,9.3 13,9.3 5.4,0 11,-2.4 15.9,-7 l 16.7,16.4 c -8.3,9.2 -20.3,14.3 -35.5,14.3 -26.7,0 -42.6,-15.7 -42.6,-39.9 0,-24.7 16.6,-40.6 41.8,-40.6 27.3,0.1 43.3,18.7 41.6,47.5 z m -41.3,-26 c -5.6,0 -9,4.6 -10.3,11.2 H 749 c 0.5,-6.5 -3.5,-11.2 -9.1,-11.2 z"
   id="path16"
   inkscape:connector-curvature="0" />
</g>
<g
   id="texte_blanc"
   display="none"
   style="display:none"
   transform="translate(-182.1,-91.1)">
	<path
   display="inline"
   d="m 219.6,137.7 c -2.7,0 -4.4,1 -4.4,2.6 0,7.3 40.6,4.4 40.6,30.7 0,16.2 -13.9,26.6 -35.5,26.6 -14.4,0 -27.3,-3.7 -38.2,-11.2 l 9.7,-20 c 10.4,6.4 20.2,9.7 28.9,9.7 3,0 4.9,-0.9 4.9,-2.3 0,-6.9 -39.8,-3.9 -39.8,-30.3 0,-16.4 13.6,-27 34.5,-27 12.4,0 24.6,3.3 36.3,9.9 L 246,146.2 c -11.6,-5.7 -20.4,-8.5 -26.4,-8.5 z"
   id="path19"
   inkscape:connector-curvature="0"
   style="display:inline;fill:#ffffff" />
	<path
   display="inline"
   d="m 301.9,177.3 c 6.4,0 11.3,-5 11.3,-13 v -46.1 h 26 v 46.1 c 0,21.2 -14.7,35 -37.4,35 -22.9,0 -38,-13.8 -38,-35 v -46.1 h 26 v 46.1 c 0,7.8 5.6,13 12.1,13 z"
   id="path21"
   inkscape:connector-curvature="0"
   style="display:inline;fill:#ffffff" />
	<path
   display="inline"
   d="m 407.7,116.5 v 29 c -14.4,-2.1 -23.9,3 -23.9,13.3 v 37.3 h -32.2 v -78.2 h 32.2 v 11.4 c 5.4,-8.1 13.7,-12.8 23.9,-12.8 z"
   id="path23"
   inkscape:connector-curvature="0"
   style="display:inline;fill:#ffffff" />
	<path
   display="inline"
   d="m 494,157.5 c 0,24.2 -12.1,39.8 -30.8,39.8 -7.4,0 -13.7,-3.3 -18.2,-9.2 v 35.8 h -28.3 v -106 H 445 v 7.9 c 4.4,-5.9 10.4,-9 17.5,-9 19.1,0 31.5,16 31.5,40.7 z m -28.5,-0.8 c 0,-9.2 -4,-15.2 -10.3,-15.2 -6.2,0 -10.2,6 -10.2,15.2 0,9.2 4,15.2 10.2,15.2 6.2,-0.1 10.3,-6.1 10.3,-15.2 z"
   id="path25"
   inkscape:connector-curvature="0"
   style="display:inline;fill:#ffffff" />
	<path
   display="inline"
   d="m 559.8,116.5 v 29 c -14.4,-2.1 -23.9,3 -23.9,13.3 v 37.3 H 503.7 V 117.9 H 536 v 11.4 c 5.4,-8.1 13.7,-12.8 23.8,-12.8 z"
   id="path27"
   inkscape:connector-curvature="0"
   style="display:inline;fill:#ffffff" />
	<path
   display="inline"
   stroke-miterlimit="10"
   d="m 574.5,217.4 c 0,-4.1 1.1,-7.1 3.4,-9.1 2.3,-2 5.9,-3 11,-3 5.1,0 8.8,1 11.1,3.1 2.3,2 3.5,5.1 3.5,9.1 0,8.1 -4.9,12.1 -14.6,12.1 -4.9,0 -8.5,-1 -10.9,-3 -2.4,-2 -3.5,-5.1 -3.5,-9.2 z m 0.7,-21.3 v -102 h 27.7 v 102.1 h -27.7 z"
   id="path29"
   inkscape:connector-curvature="0"
   style="display:inline;fill:none;stroke:#ffffff;stroke-width:6;stroke-miterlimit:10" />
	<path
   display="inline"
   d="m 653.1,137.7 c -2.7,0 -4.4,1 -4.4,2.6 0,7.3 40.6,4.4 40.6,30.7 0,16.2 -13.9,26.6 -35.5,26.6 -14.4,0 -27.3,-3.7 -38.2,-11.2 l 9.7,-20 c 10.4,6.4 20.2,9.7 28.9,9.7 3,0 4.9,-0.9 4.9,-2.3 0,-6.9 -39.8,-3.9 -39.8,-30.3 0,-16.4 13.6,-27 34.5,-27 12.4,0 24.6,3.3 36.3,9.9 l -10.6,19.9 c -11.5,-5.8 -20.4,-8.6 -26.4,-8.6 z"
   id="path31"
   inkscape:connector-curvature="0"
   style="display:inline;fill:#ffffff" />
	<path
   display="inline"
   d="m 781.2,164.2 h -50.9 c 2.1,6.1 6.7,9.3 13,9.3 5.4,0 11,-2.4 15.9,-7 l 16.7,16.4 c -8.3,9.2 -20.3,14.3 -35.5,14.3 -26.7,0 -42.6,-15.7 -42.6,-39.9 0,-24.7 16.6,-40.6 41.8,-40.6 27.3,0.1 43.3,18.7 41.6,47.5 z m -41.3,-26 c -5.6,0 -9,4.6 -10.3,11.2 H 749 c 0.5,-6.5 -3.5,-11.2 -9.1,-11.2 z"
   id="path33"
   inkscape:connector-curvature="0"
   style="display:inline;fill:#ffffff" />
</g>
</svg>